<mxfile host="app.diagrams.net" modified="2021-12-07T01:13:00.829Z" agent="5.0 (Windows NT 10.0; Win64; x64) AppleWebKit/537.36 (KHTML, like Gecko) Chrome/96.0.4664.45 Safari/537.36" etag="TnP2M1l9vArhQq1JQQdN" version="15.9.1" type="github">
  <diagram id="C5RBs43oDa-KdzZeNtuy" name="Page-1">
    <mxGraphModel dx="2031" dy="1089" grid="1" gridSize="10" guides="1" tooltips="1" connect="1" arrows="1" fold="1" page="1" pageScale="1" pageWidth="827" pageHeight="1169" math="0" shadow="0">
      <root>
        <mxCell id="WIyWlLk6GJQsqaUBKTNV-0" />
        <mxCell id="WIyWlLk6GJQsqaUBKTNV-1" parent="WIyWlLk6GJQsqaUBKTNV-0" />
        <mxCell id="WIyWlLk6GJQsqaUBKTNV-3" value="Import_data" style="rounded=1;whiteSpace=wrap;html=1;fontSize=12;glass=0;strokeWidth=1;shadow=0;" parent="WIyWlLk6GJQsqaUBKTNV-1" vertex="1">
          <mxGeometry x="160" y="30" width="120" height="40" as="geometry" />
        </mxCell>
        <mxCell id="WIyWlLk6GJQsqaUBKTNV-6" value="Botão &quot;enviar&quot; acionado?" style="rhombus;whiteSpace=wrap;html=1;shadow=0;fontFamily=Helvetica;fontSize=12;align=center;strokeWidth=1;spacing=6;spacingTop=-4;" parent="WIyWlLk6GJQsqaUBKTNV-1" vertex="1">
          <mxGeometry x="170" y="230" width="100" height="80" as="geometry" />
        </mxCell>
        <mxCell id="WIyWlLk6GJQsqaUBKTNV-7" value="Recebe e lê o arquivo excel" style="rounded=1;whiteSpace=wrap;html=1;fontSize=12;glass=0;strokeWidth=1;shadow=0;" parent="WIyWlLk6GJQsqaUBKTNV-1" vertex="1">
          <mxGeometry x="354" y="290" width="120" height="40" as="geometry" />
        </mxCell>
        <mxCell id="5HYEnJuEQakQ15kVlcpD-3" value="Carregar arquivos, coneção c/ banco de dados, configurações, etc" style="rounded=1;whiteSpace=wrap;html=1;fontSize=12;glass=0;strokeWidth=1;shadow=0;" vertex="1" parent="WIyWlLk6GJQsqaUBKTNV-1">
          <mxGeometry x="110" y="130" width="220" height="60" as="geometry" />
        </mxCell>
        <mxCell id="5HYEnJuEQakQ15kVlcpD-4" value="" style="endArrow=classic;html=1;rounded=0;exitX=0.5;exitY=1;exitDx=0;exitDy=0;" edge="1" parent="WIyWlLk6GJQsqaUBKTNV-1" source="WIyWlLk6GJQsqaUBKTNV-3" target="5HYEnJuEQakQ15kVlcpD-3">
          <mxGeometry width="50" height="50" relative="1" as="geometry">
            <mxPoint x="390" y="390" as="sourcePoint" />
            <mxPoint x="440" y="340" as="targetPoint" />
          </mxGeometry>
        </mxCell>
        <mxCell id="5HYEnJuEQakQ15kVlcpD-6" value="" style="endArrow=classic;html=1;rounded=0;exitX=0.5;exitY=1;exitDx=0;exitDy=0;entryX=0.5;entryY=0;entryDx=0;entryDy=0;" edge="1" parent="WIyWlLk6GJQsqaUBKTNV-1" source="5HYEnJuEQakQ15kVlcpD-3" target="WIyWlLk6GJQsqaUBKTNV-6">
          <mxGeometry width="50" height="50" relative="1" as="geometry">
            <mxPoint x="200" y="350" as="sourcePoint" />
            <mxPoint x="200" y="410" as="targetPoint" />
          </mxGeometry>
        </mxCell>
        <mxCell id="5HYEnJuEQakQ15kVlcpD-12" value="" style="edgeStyle=elbowEdgeStyle;elbow=horizontal;endArrow=classic;html=1;rounded=0;exitX=0;exitY=0.5;exitDx=0;exitDy=0;" edge="1" parent="WIyWlLk6GJQsqaUBKTNV-1" source="WIyWlLk6GJQsqaUBKTNV-6" target="5HYEnJuEQakQ15kVlcpD-13">
          <mxGeometry width="50" height="50" relative="1" as="geometry">
            <mxPoint x="390" y="390" as="sourcePoint" />
            <mxPoint x="120" y="320" as="targetPoint" />
          </mxGeometry>
        </mxCell>
        <mxCell id="5HYEnJuEQakQ15kVlcpD-13" value="" style="verticalLabelPosition=bottom;verticalAlign=top;html=1;shape=mxgraph.flowchart.or;" vertex="1" parent="WIyWlLk6GJQsqaUBKTNV-1">
          <mxGeometry x="60" y="290" width="40" height="40" as="geometry" />
        </mxCell>
        <mxCell id="5HYEnJuEQakQ15kVlcpD-14" value="Não executar ação" style="text;html=1;strokeColor=none;fillColor=none;align=center;verticalAlign=middle;whiteSpace=wrap;rounded=0;" vertex="1" parent="WIyWlLk6GJQsqaUBKTNV-1">
          <mxGeometry x="30" y="330" width="100" height="30" as="geometry" />
        </mxCell>
        <mxCell id="5HYEnJuEQakQ15kVlcpD-16" value="No" style="text;html=1;strokeColor=none;fillColor=none;align=center;verticalAlign=middle;whiteSpace=wrap;rounded=0;" vertex="1" parent="WIyWlLk6GJQsqaUBKTNV-1">
          <mxGeometry x="120" y="280" width="60" height="30" as="geometry" />
        </mxCell>
        <mxCell id="5HYEnJuEQakQ15kVlcpD-18" value="" style="edgeStyle=elbowEdgeStyle;elbow=horizontal;endArrow=classic;html=1;rounded=0;exitX=1;exitY=0.5;exitDx=0;exitDy=0;entryX=0;entryY=0.5;entryDx=0;entryDy=0;" edge="1" parent="WIyWlLk6GJQsqaUBKTNV-1" source="WIyWlLk6GJQsqaUBKTNV-6" target="WIyWlLk6GJQsqaUBKTNV-7">
          <mxGeometry width="50" height="50" relative="1" as="geometry">
            <mxPoint x="390" y="275" as="sourcePoint" />
            <mxPoint x="350" y="310" as="targetPoint" />
          </mxGeometry>
        </mxCell>
        <mxCell id="5HYEnJuEQakQ15kVlcpD-22" value="" style="endArrow=classic;html=1;rounded=0;exitX=0.5;exitY=1;exitDx=0;exitDy=0;" edge="1" parent="WIyWlLk6GJQsqaUBKTNV-1" source="WIyWlLk6GJQsqaUBKTNV-7" target="5HYEnJuEQakQ15kVlcpD-29">
          <mxGeometry width="50" height="50" relative="1" as="geometry">
            <mxPoint x="510" y="510" as="sourcePoint" />
            <mxPoint x="480" y="360" as="targetPoint" />
          </mxGeometry>
        </mxCell>
        <mxCell id="5HYEnJuEQakQ15kVlcpD-23" value="Linha vazia?" style="rhombus;whiteSpace=wrap;html=1;shadow=0;fontFamily=Helvetica;fontSize=12;align=center;strokeWidth=1;spacing=6;spacingTop=-4;" vertex="1" parent="WIyWlLk6GJQsqaUBKTNV-1">
          <mxGeometry x="365" y="450" width="100" height="80" as="geometry" />
        </mxCell>
        <mxCell id="5HYEnJuEQakQ15kVlcpD-26" value="Yes" style="text;html=1;strokeColor=none;fillColor=none;align=center;verticalAlign=middle;whiteSpace=wrap;rounded=0;" vertex="1" parent="WIyWlLk6GJQsqaUBKTNV-1">
          <mxGeometry x="270" y="280" width="60" height="30" as="geometry" />
        </mxCell>
        <mxCell id="5HYEnJuEQakQ15kVlcpD-29" value="Loop que verifica os projetos no excel" style="shape=loopLimit;whiteSpace=wrap;html=1;" vertex="1" parent="WIyWlLk6GJQsqaUBKTNV-1">
          <mxGeometry x="340" y="360" width="150" height="60" as="geometry" />
        </mxCell>
        <mxCell id="5HYEnJuEQakQ15kVlcpD-30" value="" style="endArrow=classic;html=1;rounded=0;exitX=0.5;exitY=1;exitDx=0;exitDy=0;entryX=0.5;entryY=0;entryDx=0;entryDy=0;" edge="1" parent="WIyWlLk6GJQsqaUBKTNV-1" source="5HYEnJuEQakQ15kVlcpD-29" target="5HYEnJuEQakQ15kVlcpD-23">
          <mxGeometry width="50" height="50" relative="1" as="geometry">
            <mxPoint x="424" y="340" as="sourcePoint" />
            <mxPoint x="424.4000000000001" y="360" as="targetPoint" />
          </mxGeometry>
        </mxCell>
        <mxCell id="5HYEnJuEQakQ15kVlcpD-32" value="" style="endArrow=classic;html=1;rounded=0;exitX=0.5;exitY=1;exitDx=0;exitDy=0;entryX=0.5;entryY=0;entryDx=0;entryDy=0;" edge="1" parent="WIyWlLk6GJQsqaUBKTNV-1" source="5HYEnJuEQakQ15kVlcpD-23" target="5HYEnJuEQakQ15kVlcpD-78">
          <mxGeometry width="50" height="50" relative="1" as="geometry">
            <mxPoint x="425" y="420" as="sourcePoint" />
            <mxPoint x="415" y="580" as="targetPoint" />
          </mxGeometry>
        </mxCell>
        <mxCell id="5HYEnJuEQakQ15kVlcpD-33" value="Yes" style="text;html=1;strokeColor=none;fillColor=none;align=center;verticalAlign=middle;whiteSpace=wrap;rounded=0;" vertex="1" parent="WIyWlLk6GJQsqaUBKTNV-1">
          <mxGeometry x="405" y="530" width="60" height="30" as="geometry" />
        </mxCell>
        <mxCell id="5HYEnJuEQakQ15kVlcpD-34" value="" style="endArrow=classic;html=1;rounded=0;exitX=1;exitY=0.5;exitDx=0;exitDy=0;entryX=0;entryY=0.5;entryDx=0;entryDy=0;" edge="1" parent="WIyWlLk6GJQsqaUBKTNV-1" source="5HYEnJuEQakQ15kVlcpD-23" target="5HYEnJuEQakQ15kVlcpD-36">
          <mxGeometry width="50" height="50" relative="1" as="geometry">
            <mxPoint x="425" y="420" as="sourcePoint" />
            <mxPoint x="530" y="490" as="targetPoint" />
          </mxGeometry>
        </mxCell>
        <mxCell id="5HYEnJuEQakQ15kVlcpD-35" value="No" style="text;html=1;strokeColor=none;fillColor=none;align=center;verticalAlign=middle;whiteSpace=wrap;rounded=0;" vertex="1" parent="WIyWlLk6GJQsqaUBKTNV-1">
          <mxGeometry x="465" y="460" width="60" height="30" as="geometry" />
        </mxCell>
        <mxCell id="5HYEnJuEQakQ15kVlcpD-44" value="" style="edgeStyle=orthogonalEdgeStyle;rounded=0;orthogonalLoop=1;jettySize=auto;html=1;" edge="1" parent="WIyWlLk6GJQsqaUBKTNV-1" source="5HYEnJuEQakQ15kVlcpD-36" target="5HYEnJuEQakQ15kVlcpD-43">
          <mxGeometry relative="1" as="geometry" />
        </mxCell>
        <mxCell id="5HYEnJuEQakQ15kVlcpD-57" value="" style="edgeStyle=orthogonalEdgeStyle;rounded=0;orthogonalLoop=1;jettySize=auto;html=1;" edge="1" parent="WIyWlLk6GJQsqaUBKTNV-1" source="5HYEnJuEQakQ15kVlcpD-36" target="5HYEnJuEQakQ15kVlcpD-56">
          <mxGeometry relative="1" as="geometry" />
        </mxCell>
        <mxCell id="5HYEnJuEQakQ15kVlcpD-36" value="Linha atual igual a linha anterior?" style="rhombus;whiteSpace=wrap;html=1;shadow=0;fontFamily=Helvetica;fontSize=12;align=center;strokeWidth=1;spacing=6;spacingTop=-4;" vertex="1" parent="WIyWlLk6GJQsqaUBKTNV-1">
          <mxGeometry x="540" y="450" width="100" height="80" as="geometry" />
        </mxCell>
        <mxCell id="5HYEnJuEQakQ15kVlcpD-49" value="" style="edgeStyle=orthogonalEdgeStyle;rounded=0;orthogonalLoop=1;jettySize=auto;html=1;entryX=0.5;entryY=1;entryDx=0;entryDy=0;" edge="1" parent="WIyWlLk6GJQsqaUBKTNV-1" source="5HYEnJuEQakQ15kVlcpD-43" target="5HYEnJuEQakQ15kVlcpD-50">
          <mxGeometry relative="1" as="geometry">
            <mxPoint x="575" y="640" as="targetPoint" />
          </mxGeometry>
        </mxCell>
        <mxCell id="5HYEnJuEQakQ15kVlcpD-43" value="Conta quantas vezes o projeto foi avaliado" style="rounded=1;whiteSpace=wrap;html=1;" vertex="1" parent="WIyWlLk6GJQsqaUBKTNV-1">
          <mxGeometry x="710" y="460" width="120" height="60" as="geometry" />
        </mxCell>
        <mxCell id="5HYEnJuEQakQ15kVlcpD-54" value="" style="edgeStyle=orthogonalEdgeStyle;rounded=0;orthogonalLoop=1;jettySize=auto;html=1;" edge="1" parent="WIyWlLk6GJQsqaUBKTNV-1" source="5HYEnJuEQakQ15kVlcpD-50" target="5HYEnJuEQakQ15kVlcpD-53">
          <mxGeometry relative="1" as="geometry" />
        </mxCell>
        <mxCell id="5HYEnJuEQakQ15kVlcpD-59" style="edgeStyle=orthogonalEdgeStyle;rounded=0;orthogonalLoop=1;jettySize=auto;html=1;exitX=1;exitY=0.5;exitDx=0;exitDy=0;entryX=1;entryY=0.5;entryDx=0;entryDy=0;" edge="1" parent="WIyWlLk6GJQsqaUBKTNV-1" source="5HYEnJuEQakQ15kVlcpD-50" target="5HYEnJuEQakQ15kVlcpD-43">
          <mxGeometry relative="1" as="geometry">
            <Array as="points">
              <mxPoint x="870" y="370" />
              <mxPoint x="870" y="490" />
            </Array>
          </mxGeometry>
        </mxCell>
        <mxCell id="5HYEnJuEQakQ15kVlcpD-50" value="Linha possui: &quot;Documento sinalizado&quot;?" style="rhombus;whiteSpace=wrap;html=1;shadow=0;fontFamily=Helvetica;fontSize=12;align=center;strokeWidth=1;spacing=6;spacingTop=-4;" vertex="1" parent="WIyWlLk6GJQsqaUBKTNV-1">
          <mxGeometry x="720" y="330" width="100" height="80" as="geometry" />
        </mxCell>
        <mxCell id="5HYEnJuEQakQ15kVlcpD-52" value="Yes" style="text;html=1;strokeColor=none;fillColor=none;align=center;verticalAlign=middle;whiteSpace=wrap;rounded=0;" vertex="1" parent="WIyWlLk6GJQsqaUBKTNV-1">
          <mxGeometry x="630" y="490" width="60" height="30" as="geometry" />
        </mxCell>
        <mxCell id="5HYEnJuEQakQ15kVlcpD-53" value="Conta quantas sinalizações o projeto possui" style="rounded=1;whiteSpace=wrap;html=1;" vertex="1" parent="WIyWlLk6GJQsqaUBKTNV-1">
          <mxGeometry x="710" y="220" width="120" height="60" as="geometry" />
        </mxCell>
        <mxCell id="5HYEnJuEQakQ15kVlcpD-55" value="Yes" style="text;html=1;strokeColor=none;fillColor=none;align=center;verticalAlign=middle;whiteSpace=wrap;rounded=0;" vertex="1" parent="WIyWlLk6GJQsqaUBKTNV-1">
          <mxGeometry x="767" y="295" width="60" height="30" as="geometry" />
        </mxCell>
        <mxCell id="5HYEnJuEQakQ15kVlcpD-56" value="Encontrado um novo projeto para ler" style="rounded=1;whiteSpace=wrap;html=1;" vertex="1" parent="WIyWlLk6GJQsqaUBKTNV-1">
          <mxGeometry x="530" y="570" width="120" height="60" as="geometry" />
        </mxCell>
        <mxCell id="5HYEnJuEQakQ15kVlcpD-60" value="No" style="text;html=1;strokeColor=none;fillColor=none;align=center;verticalAlign=middle;whiteSpace=wrap;rounded=0;" vertex="1" parent="WIyWlLk6GJQsqaUBKTNV-1">
          <mxGeometry x="820" y="410" width="60" height="30" as="geometry" />
        </mxCell>
        <mxCell id="5HYEnJuEQakQ15kVlcpD-62" style="edgeStyle=orthogonalEdgeStyle;rounded=0;orthogonalLoop=1;jettySize=auto;html=1;exitX=0;exitY=0.5;exitDx=0;exitDy=0;entryX=0.5;entryY=0;entryDx=0;entryDy=0;" edge="1" parent="WIyWlLk6GJQsqaUBKTNV-1" source="5HYEnJuEQakQ15kVlcpD-53" target="5HYEnJuEQakQ15kVlcpD-36">
          <mxGeometry relative="1" as="geometry">
            <mxPoint x="580" y="220" as="sourcePoint" />
            <mxPoint x="590" y="340" as="targetPoint" />
            <Array as="points">
              <mxPoint x="590" y="250" />
            </Array>
          </mxGeometry>
        </mxCell>
        <mxCell id="5HYEnJuEQakQ15kVlcpD-63" value="No" style="text;html=1;strokeColor=none;fillColor=none;align=center;verticalAlign=middle;whiteSpace=wrap;rounded=0;" vertex="1" parent="WIyWlLk6GJQsqaUBKTNV-1">
          <mxGeometry x="580" y="530" width="60" height="30" as="geometry" />
        </mxCell>
        <mxCell id="5HYEnJuEQakQ15kVlcpD-65" value="" style="endArrow=classic;html=1;rounded=0;exitX=0.5;exitY=1;exitDx=0;exitDy=0;entryX=0.5;entryY=0;entryDx=0;entryDy=0;" edge="1" parent="WIyWlLk6GJQsqaUBKTNV-1" source="5HYEnJuEQakQ15kVlcpD-56" target="5HYEnJuEQakQ15kVlcpD-66">
          <mxGeometry width="50" height="50" relative="1" as="geometry">
            <mxPoint x="425" y="540" as="sourcePoint" />
            <mxPoint x="590" y="710" as="targetPoint" />
          </mxGeometry>
        </mxCell>
        <mxCell id="5HYEnJuEQakQ15kVlcpD-66" value="Expurga inválidos" style="rounded=1;whiteSpace=wrap;html=1;" vertex="1" parent="WIyWlLk6GJQsqaUBKTNV-1">
          <mxGeometry x="530" y="670" width="120" height="60" as="geometry" />
        </mxCell>
        <mxCell id="5HYEnJuEQakQ15kVlcpD-67" value="" style="endArrow=classic;html=1;rounded=0;exitX=0.5;exitY=1;exitDx=0;exitDy=0;entryX=0.5;entryY=0;entryDx=0;entryDy=0;" edge="1" parent="WIyWlLk6GJQsqaUBKTNV-1" source="5HYEnJuEQakQ15kVlcpD-66" target="5HYEnJuEQakQ15kVlcpD-68">
          <mxGeometry width="50" height="50" relative="1" as="geometry">
            <mxPoint x="600" y="640" as="sourcePoint" />
            <mxPoint x="590" y="770" as="targetPoint" />
          </mxGeometry>
        </mxCell>
        <mxCell id="5HYEnJuEQakQ15kVlcpD-68" value="Projeto já possui monitoria?" style="rhombus;whiteSpace=wrap;html=1;shadow=0;fontFamily=Helvetica;fontSize=12;align=center;strokeWidth=1;spacing=6;spacingTop=-4;" vertex="1" parent="WIyWlLk6GJQsqaUBKTNV-1">
          <mxGeometry x="540" y="770" width="100" height="80" as="geometry" />
        </mxCell>
        <mxCell id="5HYEnJuEQakQ15kVlcpD-82" value="" style="edgeStyle=orthogonalEdgeStyle;rounded=0;orthogonalLoop=1;jettySize=auto;html=1;" edge="1" parent="WIyWlLk6GJQsqaUBKTNV-1" source="5HYEnJuEQakQ15kVlcpD-69" target="5HYEnJuEQakQ15kVlcpD-80">
          <mxGeometry relative="1" as="geometry" />
        </mxCell>
        <mxCell id="5HYEnJuEQakQ15kVlcpD-69" value="Deleta monitoria anterior e importa a nova" style="rounded=1;whiteSpace=wrap;html=1;" vertex="1" parent="WIyWlLk6GJQsqaUBKTNV-1">
          <mxGeometry x="530" y="900" width="120" height="60" as="geometry" />
        </mxCell>
        <mxCell id="5HYEnJuEQakQ15kVlcpD-70" value="" style="endArrow=classic;html=1;rounded=0;exitX=0.5;exitY=1;exitDx=0;exitDy=0;entryX=0.5;entryY=0;entryDx=0;entryDy=0;" edge="1" parent="WIyWlLk6GJQsqaUBKTNV-1" source="5HYEnJuEQakQ15kVlcpD-68" target="5HYEnJuEQakQ15kVlcpD-69">
          <mxGeometry width="50" height="50" relative="1" as="geometry">
            <mxPoint x="600" y="740" as="sourcePoint" />
            <mxPoint x="600" y="780" as="targetPoint" />
          </mxGeometry>
        </mxCell>
        <mxCell id="5HYEnJuEQakQ15kVlcpD-71" value="Yes" style="text;html=1;strokeColor=none;fillColor=none;align=center;verticalAlign=middle;whiteSpace=wrap;rounded=0;" vertex="1" parent="WIyWlLk6GJQsqaUBKTNV-1">
          <mxGeometry x="530" y="856" width="60" height="30" as="geometry" />
        </mxCell>
        <mxCell id="5HYEnJuEQakQ15kVlcpD-81" value="" style="edgeStyle=orthogonalEdgeStyle;rounded=0;orthogonalLoop=1;jettySize=auto;html=1;" edge="1" parent="WIyWlLk6GJQsqaUBKTNV-1" source="5HYEnJuEQakQ15kVlcpD-74" target="5HYEnJuEQakQ15kVlcpD-79">
          <mxGeometry relative="1" as="geometry" />
        </mxCell>
        <mxCell id="5HYEnJuEQakQ15kVlcpD-74" value="Importa monitoria" style="rounded=1;whiteSpace=wrap;html=1;" vertex="1" parent="WIyWlLk6GJQsqaUBKTNV-1">
          <mxGeometry x="700" y="780" width="120" height="60" as="geometry" />
        </mxCell>
        <mxCell id="5HYEnJuEQakQ15kVlcpD-75" value="" style="endArrow=classic;html=1;rounded=0;exitX=1;exitY=0.5;exitDx=0;exitDy=0;entryX=0;entryY=0.5;entryDx=0;entryDy=0;" edge="1" parent="WIyWlLk6GJQsqaUBKTNV-1" source="5HYEnJuEQakQ15kVlcpD-68" target="5HYEnJuEQakQ15kVlcpD-74">
          <mxGeometry width="50" height="50" relative="1" as="geometry">
            <mxPoint x="600" y="740" as="sourcePoint" />
            <mxPoint x="600" y="780" as="targetPoint" />
          </mxGeometry>
        </mxCell>
        <mxCell id="5HYEnJuEQakQ15kVlcpD-76" value="Não" style="text;html=1;strokeColor=none;fillColor=none;align=center;verticalAlign=middle;whiteSpace=wrap;rounded=0;" vertex="1" parent="WIyWlLk6GJQsqaUBKTNV-1">
          <mxGeometry x="640" y="780" width="60" height="30" as="geometry" />
        </mxCell>
        <mxCell id="5HYEnJuEQakQ15kVlcpD-78" value="Populando o banco" style="ellipse;whiteSpace=wrap;html=1;aspect=fixed;" vertex="1" parent="WIyWlLk6GJQsqaUBKTNV-1">
          <mxGeometry x="382.5" y="580" width="65" height="65" as="geometry" />
        </mxCell>
        <mxCell id="5HYEnJuEQakQ15kVlcpD-79" value="Populando o banco" style="ellipse;whiteSpace=wrap;html=1;aspect=fixed;" vertex="1" parent="WIyWlLk6GJQsqaUBKTNV-1">
          <mxGeometry x="850" y="777.5" width="65" height="65" as="geometry" />
        </mxCell>
        <mxCell id="5HYEnJuEQakQ15kVlcpD-80" value="Populando o banco" style="ellipse;whiteSpace=wrap;html=1;aspect=fixed;" vertex="1" parent="WIyWlLk6GJQsqaUBKTNV-1">
          <mxGeometry x="557.5" y="980" width="65" height="65" as="geometry" />
        </mxCell>
        <mxCell id="5HYEnJuEQakQ15kVlcpD-83" value="Populando o banco" style="rounded=1;whiteSpace=wrap;html=1;fontSize=12;glass=0;strokeWidth=1;shadow=0;" vertex="1" parent="WIyWlLk6GJQsqaUBKTNV-1">
          <mxGeometry x="1190" y="30" width="120" height="40" as="geometry" />
        </mxCell>
        <mxCell id="5HYEnJuEQakQ15kVlcpD-84" value="" style="endArrow=none;html=1;rounded=0;" edge="1" parent="WIyWlLk6GJQsqaUBKTNV-1">
          <mxGeometry width="50" height="50" relative="1" as="geometry">
            <mxPoint x="940" y="1120" as="sourcePoint" />
            <mxPoint x="940" y="20" as="targetPoint" />
          </mxGeometry>
        </mxCell>
        <mxCell id="5HYEnJuEQakQ15kVlcpD-85" value="" style="endArrow=classic;html=1;rounded=0;exitX=0.5;exitY=1;exitDx=0;exitDy=0;entryX=0.5;entryY=0;entryDx=0;entryDy=0;startArrow=none;" edge="1" parent="WIyWlLk6GJQsqaUBKTNV-1" source="5HYEnJuEQakQ15kVlcpD-95" target="5HYEnJuEQakQ15kVlcpD-95">
          <mxGeometry width="50" height="50" relative="1" as="geometry">
            <mxPoint x="230" y="80" as="sourcePoint" />
            <mxPoint x="1250" y="120" as="targetPoint" />
          </mxGeometry>
        </mxCell>
        <mxCell id="5HYEnJuEQakQ15kVlcpD-86" value="Linha possui: &quot;Documento sinalizado&quot;?" style="rhombus;whiteSpace=wrap;html=1;shadow=0;fontFamily=Helvetica;fontSize=12;align=center;strokeWidth=1;spacing=6;spacingTop=-4;" vertex="1" parent="WIyWlLk6GJQsqaUBKTNV-1">
          <mxGeometry x="1200" y="205" width="100" height="80" as="geometry" />
        </mxCell>
        <mxCell id="5HYEnJuEQakQ15kVlcpD-87" value="" style="verticalLabelPosition=bottom;verticalAlign=top;html=1;shape=mxgraph.flowchart.or;" vertex="1" parent="WIyWlLk6GJQsqaUBKTNV-1">
          <mxGeometry x="1100" y="285" width="40" height="40" as="geometry" />
        </mxCell>
        <mxCell id="5HYEnJuEQakQ15kVlcpD-89" style="edgeStyle=orthogonalEdgeStyle;rounded=0;orthogonalLoop=1;jettySize=auto;html=1;exitX=0;exitY=0.5;exitDx=0;exitDy=0;entryX=0.5;entryY=0;entryDx=0;entryDy=0;entryPerimeter=0;" edge="1" parent="WIyWlLk6GJQsqaUBKTNV-1" source="5HYEnJuEQakQ15kVlcpD-86" target="5HYEnJuEQakQ15kVlcpD-87">
          <mxGeometry relative="1" as="geometry">
            <mxPoint x="1150.0600000000004" y="285" as="sourcePoint" />
            <mxPoint x="1160.0600000000004" y="405" as="targetPoint" />
            <Array as="points">
              <mxPoint x="1120" y="245" />
            </Array>
          </mxGeometry>
        </mxCell>
        <mxCell id="5HYEnJuEQakQ15kVlcpD-90" value="Yes" style="text;html=1;strokeColor=none;fillColor=none;align=center;verticalAlign=middle;whiteSpace=wrap;rounded=0;" vertex="1" parent="WIyWlLk6GJQsqaUBKTNV-1">
          <mxGeometry x="1130" y="215" width="60" height="30" as="geometry" />
        </mxCell>
        <mxCell id="5HYEnJuEQakQ15kVlcpD-91" value="Não executar ação" style="text;html=1;strokeColor=none;fillColor=none;align=center;verticalAlign=middle;whiteSpace=wrap;rounded=0;" vertex="1" parent="WIyWlLk6GJQsqaUBKTNV-1">
          <mxGeometry x="1070" y="330" width="100" height="30" as="geometry" />
        </mxCell>
        <mxCell id="5HYEnJuEQakQ15kVlcpD-93" style="edgeStyle=orthogonalEdgeStyle;rounded=0;orthogonalLoop=1;jettySize=auto;html=1;exitX=1;exitY=0.5;exitDx=0;exitDy=0;entryX=0.5;entryY=0;entryDx=0;entryDy=0;" edge="1" parent="WIyWlLk6GJQsqaUBKTNV-1" source="5HYEnJuEQakQ15kVlcpD-86" target="5HYEnJuEQakQ15kVlcpD-94">
          <mxGeometry relative="1" as="geometry">
            <mxPoint x="1440.0599999999995" y="245" as="sourcePoint" />
            <mxPoint x="1390" y="295" as="targetPoint" />
            <Array as="points">
              <mxPoint x="1390" y="245" />
            </Array>
          </mxGeometry>
        </mxCell>
        <mxCell id="5HYEnJuEQakQ15kVlcpD-94" value="Coleta dos dados do excel e importa no banco" style="rounded=1;whiteSpace=wrap;html=1;fontSize=12;glass=0;strokeWidth=1;shadow=0;" vertex="1" parent="WIyWlLk6GJQsqaUBKTNV-1">
          <mxGeometry x="1320" y="285" width="140" height="60" as="geometry" />
        </mxCell>
        <mxCell id="5HYEnJuEQakQ15kVlcpD-101" value="" style="edgeStyle=orthogonalEdgeStyle;rounded=0;orthogonalLoop=1;jettySize=auto;html=1;" edge="1" parent="WIyWlLk6GJQsqaUBKTNV-1" source="5HYEnJuEQakQ15kVlcpD-95" target="5HYEnJuEQakQ15kVlcpD-100">
          <mxGeometry relative="1" as="geometry" />
        </mxCell>
        <mxCell id="5HYEnJuEQakQ15kVlcpD-95" value="Loop que lê as linhas do excel" style="shape=loopLimit;whiteSpace=wrap;html=1;" vertex="1" parent="WIyWlLk6GJQsqaUBKTNV-1">
          <mxGeometry x="1175" y="110" width="150" height="60" as="geometry" />
        </mxCell>
        <mxCell id="5HYEnJuEQakQ15kVlcpD-97" value="" style="endArrow=classic;html=1;rounded=0;exitX=0.5;exitY=1;exitDx=0;exitDy=0;entryX=0.5;entryY=0;entryDx=0;entryDy=0;" edge="1" parent="WIyWlLk6GJQsqaUBKTNV-1" source="5HYEnJuEQakQ15kVlcpD-83" target="5HYEnJuEQakQ15kVlcpD-95">
          <mxGeometry width="50" height="50" relative="1" as="geometry">
            <mxPoint x="1200" y="80" as="sourcePoint" />
            <mxPoint x="1200" y="140" as="targetPoint" />
          </mxGeometry>
        </mxCell>
        <mxCell id="5HYEnJuEQakQ15kVlcpD-98" value="" style="endArrow=classic;html=1;rounded=0;exitX=0.5;exitY=1;exitDx=0;exitDy=0;entryX=0.5;entryY=0;entryDx=0;entryDy=0;" edge="1" parent="WIyWlLk6GJQsqaUBKTNV-1" source="5HYEnJuEQakQ15kVlcpD-95" target="5HYEnJuEQakQ15kVlcpD-86">
          <mxGeometry width="50" height="50" relative="1" as="geometry">
            <mxPoint x="1259.9999999999995" y="80" as="sourcePoint" />
            <mxPoint x="1259.9999999999995" y="120" as="targetPoint" />
          </mxGeometry>
        </mxCell>
        <mxCell id="5HYEnJuEQakQ15kVlcpD-100" value="" style="verticalLabelPosition=bottom;verticalAlign=top;html=1;shape=mxgraph.flowchart.or;" vertex="1" parent="WIyWlLk6GJQsqaUBKTNV-1">
          <mxGeometry x="1390" y="120" width="40" height="40" as="geometry" />
        </mxCell>
        <mxCell id="5HYEnJuEQakQ15kVlcpD-102" value="Encerra a automação quando todas as linhas forem lidas" style="text;html=1;strokeColor=none;fillColor=none;align=center;verticalAlign=middle;whiteSpace=wrap;rounded=0;" vertex="1" parent="WIyWlLk6GJQsqaUBKTNV-1">
          <mxGeometry x="1430" y="110" width="190" height="60" as="geometry" />
        </mxCell>
      </root>
    </mxGraphModel>
  </diagram>
</mxfile>
